<?xml version="1.0" encoding="UTF-8" standalone="no"?>
<svg
   xmlns:dc="http://purl.org/dc/elements/1.1/"
   xmlns:cc="http://creativecommons.org/ns#"
   xmlns:rdf="http://www.w3.org/1999/02/22-rdf-syntax-ns#"
   xmlns:svg="http://www.w3.org/2000/svg"
   xmlns="http://www.w3.org/2000/svg"
   xmlns:sodipodi="http://sodipodi.sourceforge.net/DTD/sodipodi-0.dtd"
   xmlns:inkscape="http://www.inkscape.org/namespaces/inkscape"
   width="210mm"
   height="297mm"
   viewBox="0 0 210 297"
   version="1.1"
   id="svg8"
   inkscape:version="1.0.2 (e86c870879, 2021-01-15)"
   sodipodi:docname="flange_pins.svg">
  <defs
     id="defs2">
    <inkscape:path-effect
       effect="fillet_chamfer"
       id="path-effect44"
       is_visible="true"
       lpeversion="1"
       satellites_param="F,0,0,1,0,0,0,1 @ F,0,0,1,0,1,0,1 @ F,0,0,1,0,1,0,1 @ F,0,0,1,0,1,0,1"
       unit="mm"
       method="auto"
       mode="F"
       radius="1"
       chamfer_steps="1"
       flexible="false"
       use_knot_distance="true"
       apply_no_radius="true"
       apply_with_radius="true"
       only_selected="false"
       hide_knots="false" />
  </defs>
  <sodipodi:namedview
     id="base"
     pagecolor="#ffffff"
     bordercolor="#666666"
     borderopacity="1.0"
     inkscape:pageopacity="0.0"
     inkscape:pageshadow="2"
     inkscape:zoom="4.5360524"
     inkscape:cx="185.59767"
     inkscape:cy="214.47128"
     inkscape:document-units="mm"
     inkscape:current-layer="layer1"
     inkscape:document-rotation="0"
     showgrid="false"
     showguides="true"
     inkscape:guide-bbox="true"
     inkscape:snap-to-guides="true"
     inkscape:snap-center="true"
     inkscape:snap-object-midpoints="true"
     inkscape:window-width="2000"
     inkscape:window-height="1045"
     inkscape:window-x="0"
     inkscape:window-y="0"
     inkscape:window-maximized="1"
     inkscape:snap-midpoints="true"
     inkscape:snap-smooth-nodes="true"
     inkscape:snap-intersection-paths="true"
     inkscape:object-paths="true"
     inkscape:snap-bbox="true">
    <sodipodi:guide
       position="50,247"
       orientation="-1,0"
       id="guide10"
       inkscape:label=""
       inkscape:locked="false"
       inkscape:color="rgb(0,0,255)" />
    <sodipodi:guide
       position="49.999999,247.00001"
       orientation="0,-1"
       id="guide12" />
    <sodipodi:guide
       position="49.999999,247.00002"
       orientation="0,-1"
       id="guide976" />
    <sodipodi:guide
       position="50,270"
       orientation="0,1"
       id="guide992"
       inkscape:label=""
       inkscape:locked="false"
       inkscape:color="rgb(0,0,255)" />
    <sodipodi:guide
       position="50,247.00003"
       orientation="0.96592583,-0.25881905"
       id="guide1127"
       inkscape:label=""
       inkscape:locked="false"
       inkscape:color="rgb(0,0,255)" />
    <sodipodi:guide
       position="50,247.00003"
       orientation="0.96592583,0.25881905"
       id="guide1129"
       inkscape:label=""
       inkscape:locked="false"
       inkscape:color="rgb(0,0,255)" />
  </sodipodi:namedview>
  <metadata
     id="metadata5">
    <rdf:RDF>
      <cc:Work
         rdf:about="">
        <dc:format>image/svg+xml</dc:format>
        <dc:type
           rdf:resource="http://purl.org/dc/dcmitype/StillImage" />
        <dc:title></dc:title>
      </cc:Work>
    </rdf:RDF>
  </metadata>
  <g
     inkscape:label="Layer 1"
     inkscape:groupmode="layer"
     id="layer1">
    <circle
       style="fill:none;stroke:#000000;stroke-width:0.2;stroke-miterlimit:4;stroke-dasharray:none;stroke-opacity:1"
       id="path839"
       cx="50"
       cy="49.999992"
       r="28" />
    <path
       id="path994"
       style="font-variation-settings:normal;opacity:1;vector-effect:none;fill:none;fill-opacity:1;stroke:#000000;stroke-width:0.2;stroke-linecap:butt;stroke-linejoin:miter;stroke-miterlimit:4;stroke-dasharray:none;stroke-dashoffset:0;stroke-opacity:1;stop-color:#000000;stop-opacity:1"
       d="m 29.081432,59.767921 a 2,2 0 0 1 2.732051,0.732051 2,2 0 0 1 -0.732051,2.73205 2,2 0 0 1 -2.732051,-0.73205 2,2 0 0 1 0.732051,-2.732051 z"
       inkscape:transform-center-y="11.499991"
       inkscape:transform-center-x="19.918568" />
    <path
       id="path994-7"
       style="fill:none;stroke:#000000;stroke-width:0.2;stroke-miterlimit:4;stroke-dasharray:none;stroke-opacity:1"
       d="m 68.918568,63.232022 a 2,2 0 0 1 -0.732051,-2.732051 2,2 0 0 1 2.732051,-0.73205 2,2 0 0 1 0.732051,2.73205 2,2 0 0 1 -2.732051,0.732051 z"
       inkscape:transform-center-y="11.49999"
       inkscape:transform-center-x="-19.918568" />
    <path
       id="path994-3"
       style="fill:none;stroke:#000000;stroke-width:0.2;stroke-miterlimit:4;stroke-dasharray:none;stroke-opacity:1"
       d="m 52,27 a 2,2 0 0 1 -2,2 2,2 0 0 1 -2,-2 2,2 0 0 1 2,-2 2,2 0 0 1 2,2 z"
       inkscape:transform-center-y="-22.999981" />
    <path
       id="path1188-5"
       style="fill:none;stroke:#000000;stroke-width:0.2;stroke-linecap:butt;stroke-linejoin:miter;stroke-miterlimit:4;stroke-dasharray:none;stroke-opacity:1"
       inkscape:transform-center-x="2.3293695"
       inkscape:transform-center-y="11.247527"
       d="m 37.272071,62.727907 0.353553,-0.353553 c 0.390524,-0.390526 0.387948,-1.021805 0.02185,-1.435201 -1.472183,-1.662375 -2.593771,-3.605022 -3.297338,-5.711157 -0.174961,-0.523749 -0.720377,-0.841617 -1.253843,-0.698673 l -0.482958,0.129411 C 30.040382,45.056345 35.738867,35.18628 45.341257,32.613327 l 0.12941,0.482963 c 0.142943,0.533466 0.690935,0.846875 1.231996,0.736522 2.17575,-0.44376 4.418926,-0.44376 6.594676,0 0.54106,0.110354 1.089051,-0.203056 1.23199,-0.736523 l 0.129406,-0.482959 c 9.602388,2.572952 15.300873,12.443017 12.727921,22.045407 l -0.482964,-0.129409 c -0.533466,-0.142941 -1.078882,0.17493 -1.253844,0.698679 -0.703568,2.106135 -1.825156,4.048782 -3.297338,5.711157 -0.3661,0.413395 -0.368676,1.044677 0.02185,1.435196 l 0.353554,0.353548 c -7.029436,7.029437 -18.426405,7.029437 -25.455843,-10e-7 z"
       sodipodi:nodetypes="cssssccssssccsssscc" />
  </g>
</svg>
