<?xml version="1.0" encoding="UTF-8" standalone="no"?>
<svg
   xmlns:dc="http://purl.org/dc/elements/1.1/"
   xmlns:cc="http://creativecommons.org/ns#"
   xmlns:rdf="http://www.w3.org/1999/02/22-rdf-syntax-ns#"
   xmlns:svg="http://www.w3.org/2000/svg"
   xmlns="http://www.w3.org/2000/svg"
   xmlns:sodipodi="http://sodipodi.sourceforge.net/DTD/sodipodi-0.dtd"
   xmlns:inkscape="http://www.inkscape.org/namespaces/inkscape"
   width="210mm"
   height="297mm"
   viewBox="0 0 210 297"
   version="1.1"
   id="svg8753"
   inkscape:version="1.0.2 (e86c870879, 2021-01-15)"
   sodipodi:docname="parts1.svg">
  <defs
     id="defs8747" />
  <sodipodi:namedview
     id="base"
     pagecolor="#ffffff"
     bordercolor="#666666"
     borderopacity="1.0"
     inkscape:pageopacity="0.0"
     inkscape:pageshadow="2"
     inkscape:zoom="0.7"
     inkscape:cx="400"
     inkscape:cy="560"
     inkscape:document-units="mm"
     inkscape:current-layer="layer1"
     inkscape:document-rotation="0"
     showgrid="false"
     inkscape:window-width="2000"
     inkscape:window-height="1045"
     inkscape:window-x="0"
     inkscape:window-y="0"
     inkscape:window-maximized="1" />
  <metadata
     id="metadata8750">
    <rdf:RDF>
      <cc:Work
         rdf:about="">
        <dc:format>image/svg+xml</dc:format>
        <dc:type
           rdf:resource="http://purl.org/dc/dcmitype/StillImage" />
        <dc:title />
      </cc:Work>
    </rdf:RDF>
  </metadata>
  <g
     inkscape:label="Layer 1"
     inkscape:groupmode="layer"
     id="layer1">
    <g
       inkscape:label="Layer 1"
       id="layer1-1-2"
       transform="translate(-14.62143,207.02386)">
      <circle
         style="fill:none;stroke:#000000;stroke-width:0.2;stroke-miterlimit:4;stroke-dasharray:none;stroke-opacity:1"
         id="path839"
         cx="50"
         cy="49.999992"
         r="28" />
      <path
         id="path994"
         style="font-variation-settings:normal;opacity:1;vector-effect:none;fill:none;fill-opacity:1;stroke:#000000;stroke-width:0.2;stroke-linecap:butt;stroke-linejoin:miter;stroke-miterlimit:4;stroke-dasharray:none;stroke-dashoffset:0;stroke-opacity:1;stop-color:#000000;stop-opacity:1"
         d="m 29.081432,59.767921 a 2,2 0 0 1 2.732051,0.732051 2,2 0 0 1 -0.732051,2.73205 2,2 0 0 1 -2.732051,-0.73205 2,2 0 0 1 0.732051,-2.732051 z"
         inkscape:transform-center-y="11.499991"
         inkscape:transform-center-x="19.918568" />
      <path
         id="path994-7"
         style="fill:none;stroke:#000000;stroke-width:0.2;stroke-miterlimit:4;stroke-dasharray:none;stroke-opacity:1"
         d="m 68.918568,63.232022 a 2,2 0 0 1 -0.732051,-2.732051 2,2 0 0 1 2.732051,-0.73205 2,2 0 0 1 0.732051,2.73205 2,2 0 0 1 -2.732051,0.732051 z"
         inkscape:transform-center-y="11.49999"
         inkscape:transform-center-x="-19.918568" />
      <path
         id="path994-3"
         style="fill:none;stroke:#000000;stroke-width:0.2;stroke-miterlimit:4;stroke-dasharray:none;stroke-opacity:1"
         d="m 52,27 a 2,2 0 0 1 -2,2 2,2 0 0 1 -2,-2 2,2 0 0 1 2,-2 2,2 0 0 1 2,2 z"
         inkscape:transform-center-y="-22.999981" />
      <path
         id="path1188-5"
         style="fill:none;stroke:#000000;stroke-width:0.2;stroke-linecap:butt;stroke-linejoin:miter;stroke-miterlimit:4;stroke-dasharray:none;stroke-opacity:1"
         inkscape:transform-center-x="2.3293695"
         inkscape:transform-center-y="11.247527"
         d="m 37.272071,62.727907 0.353553,-0.353553 c 0.390524,-0.390526 0.387948,-1.021805 0.02185,-1.435201 -1.472183,-1.662375 -2.593771,-3.605022 -3.297338,-5.711157 -0.174961,-0.523749 -0.720377,-0.841617 -1.253843,-0.698673 l -0.482958,0.129411 C 30.040382,45.056345 35.738867,35.18628 45.341257,32.613327 l 0.12941,0.482963 c 0.142943,0.533466 0.690935,0.846875 1.231996,0.736522 2.17575,-0.44376 4.418926,-0.44376 6.594676,0 0.54106,0.110354 1.089051,-0.203056 1.23199,-0.736523 l 0.129406,-0.482959 c 9.602388,2.572952 15.300873,12.443017 12.727921,22.045407 l -0.482964,-0.129409 c -0.533466,-0.142941 -1.078882,0.17493 -1.253844,0.698679 -0.703568,2.106135 -1.825156,4.048782 -3.297338,5.711157 -0.3661,0.413395 -0.368676,1.044677 0.02185,1.435196 l 0.353554,0.353548 c -7.029436,7.029437 -18.426405,7.029437 -25.455843,-10e-7 z"
         sodipodi:nodetypes="cssssccssssccsssscc" />
    </g>
    <g
       inkscape:label="Layer 1"
       id="layer1-2"
       transform="rotate(180,111.80806,145.53032)">
      <rect
         style="fill:none;stroke:#000000;stroke-width:0.2;stroke-miterlimit:4;stroke-dasharray:none"
         id="rect4621"
         width="22.5"
         height="59"
         x="23"
         y="57"
         ry="0" />
      <rect
         style="fill:none;stroke:#000000;stroke-width:0.2;stroke-miterlimit:4;stroke-dasharray:none"
         id="rect4627"
         width="10"
         height="3.0000007"
         x="30"
         y="73" />
      <rect
         style="fill:none;stroke:#000000;stroke-width:0.2;stroke-miterlimit:4;stroke-dasharray:none"
         id="rect4631"
         width="10"
         height="3.0000005"
         x="30"
         y="97" />
      <rect
         style="fill:none;stroke:#000000;stroke-width:0.2;stroke-miterlimit:4;stroke-dasharray:none"
         id="rect8501"
         width="5"
         height="3"
         x="27"
         y="110" />
      <rect
         style="fill:none;stroke:#000000;stroke-width:0.2;stroke-miterlimit:4;stroke-dasharray:none"
         id="rect8503"
         width="5"
         height="3"
         x="37"
         y="110" />
      <rect
         style="fill:none;stroke:#000000;stroke-width:0.2;stroke-miterlimit:4;stroke-dasharray:none"
         id="rect8501-0"
         width="5"
         height="3"
         x="27"
         y="60" />
      <rect
         style="fill:none;stroke:#000000;stroke-width:0.2;stroke-miterlimit:4;stroke-dasharray:none"
         id="rect8503-6"
         width="5"
         height="3"
         x="37"
         y="60" />
    </g>
    <path
       style="fill:none;stroke:#000000;stroke-width:0.2;stroke-linecap:butt;stroke-linejoin:miter;stroke-miterlimit:4;stroke-dasharray:none;stroke-opacity:1"
       d="m 108.45836,171.79163 v -7 h -3 v -7 h 3 v -3 h 40.00003 v -45 h -40.00003 v -5 h -3 v -6.999985 h 3 v -4.999982 h 87.00003 v 4.999982 h 6 v 6.999985 h -6 v 13 h 6 v 7 h -6 v 13 h 6 v 7 h -6 v 13 h 6 v 7 h -6 v 7 z"
       id="path2404-7"
       sodipodi:nodetypes="ccccccccccccccccccccccccccccccccc" />
    <g
       inkscape:label="Layer 1"
       id="layer1-5"
       transform="matrix(0,1,1,0,85.533886,-12.45591)">
      <path
         style="fill:none;stroke:#000000;stroke-width:0.2;stroke-linecap:butt;stroke-linejoin:miter;stroke-miterlimit:4;stroke-dasharray:none;stroke-opacity:1"
         d="m 23,23.000001 h 7 v -3 h 7 v 3 h 10 v -3 h 25 v 3 h 18 v -3 h 7 v 3 h 5 V 110 h -5 v 6 h -7 v -6 H 77 v 6 h -7 v -6 H 57 v 6 h -7 v -6 H 37 v 6 h -7 v -6 h -7 z"
         id="path2404-2"
         sodipodi:nodetypes="ccccccccccccccccccccccccccccccccc" />
      <path
         style="fill:none;stroke:#000000;stroke-width:0.2;stroke-linecap:butt;stroke-linejoin:miter;stroke-miterlimit:4;stroke-dasharray:none;stroke-opacity:1"
         d="m 50,23.000001 h 6 v 3 h -6 z"
         id="path2573-5"
         sodipodi:nodetypes="ccccc" />
      <path
         style="fill:none;stroke:#000000;stroke-width:0.2;stroke-linecap:butt;stroke-linejoin:miter;stroke-miterlimit:4;stroke-dasharray:none;stroke-opacity:1"
         d="m 63,23.000001 h 6.000001 v 3 L 63,26 Z"
         id="path2575-47"
         sodipodi:nodetypes="ccccc" />
    </g>
    <g
       inkscape:label="Layer 1"
       id="layer1-43"
       transform="rotate(-90,62.534898,74.896802)">
      <path
         style="fill:none;stroke:#000000;stroke-width:0.2;stroke-linecap:butt;stroke-linejoin:miter;stroke-miterlimit:4;stroke-dasharray:none;stroke-opacity:1"
         d="m 23,23.000001 h 7 v -3 h 7 v 3 h 10 v -3 h 25 v 3 h 18 v -3 h 7 v 3 h 5 V 110 h -5 v 6 h -7 v -6 H 77 v 6 h -7 v -6 H 57 v 6 h -7 v -6 H 37 v 6 h -7 v -6 h -7 z"
         id="path2404-0"
         sodipodi:nodetypes="ccccccccccccccccccccccccccccccccc" />
      <path
         style="fill:none;stroke:#000000;stroke-width:0.2;stroke-linecap:butt;stroke-linejoin:miter;stroke-miterlimit:4;stroke-dasharray:none;stroke-opacity:1"
         d="m 50,23.000001 h 6 v 3 h -6 z"
         id="path2573-7"
         sodipodi:nodetypes="ccccc" />
      <path
         style="fill:none;stroke:#000000;stroke-width:0.2;stroke-linecap:butt;stroke-linejoin:miter;stroke-miterlimit:4;stroke-dasharray:none;stroke-opacity:1"
         d="m 63,23.000001 h 6.000001 v 3 L 63,26 Z"
         id="path2575-8"
         sodipodi:nodetypes="ccccc" />
      <rect
         style="fill:none;stroke:#000000;stroke-width:0.2"
         id="rect4674-6"
         width="7"
         height="3"
         x="30"
         y="97" />
      <rect
         style="fill:none;stroke:#000000;stroke-width:0.2"
         id="rect4676-8"
         width="7"
         height="3"
         x="50"
         y="97" />
      <rect
         style="fill:none;stroke:#000000;stroke-width:0.2"
         id="rect4678-8"
         width="7"
         height="3"
         x="30"
         y="73" />
      <rect
         style="fill:none;stroke:#000000;stroke-width:0.2"
         id="rect4680-4"
         width="7"
         height="3"
         x="50"
         y="73" />
    </g>
    <g
       inkscape:label="Layer 1"
       id="layer1-1"
       transform="rotate(-90,111.63386,125.05388)">
      <path
         style="fill:none;stroke:#000000;stroke-width:0.2;stroke-linecap:butt;stroke-linejoin:miter;stroke-miterlimit:4;stroke-dasharray:none;stroke-opacity:1"
         d="m 10,26.000001 h 3 v -6 h 8 v 6 H 45 L 44.999999,20 H 55 v 6.000001 H 70 L 69.999999,20 h 9.999999 L 80,26.000001 H 95 L 94.999999,20 H 105 v 6.000001 h 14.87 V 113 H 105 v 3 H 94.999999 v -3 H 79.999998 v 3 h -9.999999 v -3 H 55 v 3 H 44.999999 v -3 H 21 v 3 h -8 v -3 H 9.9999997 Z"
         id="path1706-4"
         sodipodi:nodetypes="ccccccccccccccccccccccccccccccccccccc" />
      <rect
         style="fill:none;stroke:#000000;stroke-width:0.2"
         id="rect7429-9"
         width="3"
         height="8"
         x="114.1"
         y="77.999992" />
      <rect
         style="fill:none;stroke:#000000;stroke-width:0.2"
         id="rect7431-2"
         width="3"
         height="8"
         x="114.1"
         y="100" />
      <rect
         style="fill:none;stroke:#000000;stroke-width:0.2;stroke-miterlimit:4;stroke-dasharray:none"
         id="rect1204"
         width="3"
         height="10"
         x="77.999992"
         y="-104.1"
         transform="rotate(90)" />
      <rect
         style="fill:none;stroke:#000000;stroke-width:0.2;stroke-miterlimit:4;stroke-dasharray:none"
         id="rect1206"
         width="3"
         height="10"
         x="77.999992"
         y="-84.099998"
         transform="rotate(90)" />
    </g>
    <g
       inkscape:label="Layer 1"
       id="layer1-68"
       transform="matrix(-1,0,0,1,152.29645,104.09403)">
      <path
         id="rect3188-9"
         style="opacity:0.989413;fill:none;stroke:#000000;stroke-width:0.2;stroke-miterlimit:4;stroke-dasharray:none"
         d="m 10,10 5,10e-7 V 7.0000008 h 8 v 3.0000002 h 8 V 7.0000008 h 8 v 3.0000002 h 5.5 v 40 H 10 v -5 H 7 v -8 h 3 v -14 H 7 v -8 h 3 z"
         sodipodi:nodetypes="ccccccccccccccccccccc" />
      <rect
         style="fill:none;stroke:#000000;stroke-width:0.2;stroke-miterlimit:4;stroke-dasharray:none"
         id="rect1146"
         width="8"
         height="3"
         x="15"
         y="42" />
      <rect
         style="fill:none;stroke:#000000;stroke-width:0.2;stroke-miterlimit:4;stroke-dasharray:none"
         id="rect1148"
         width="8"
         height="3"
         x="31"
         y="42" />
    </g>
    <g
       inkscape:label="Layer 1"
       id="layer1-6"
       transform="rotate(-90,15.820493,28.194395)">
      <path
         style="fill:none;stroke:#000000;stroke-width:0.2;stroke-linecap:butt;stroke-linejoin:miter;stroke-miterlimit:4;stroke-dasharray:none;stroke-opacity:1"
         d="M 10,23.000001 H 34 V 110 H 10 Z"
         id="path1801-3"
         sodipodi:nodetypes="ccccc" />
      <circle
         style="fill:none;stroke:#000000;stroke-width:0.2;stroke-miterlimit:4;stroke-dasharray:none"
         id="path2182-2"
         cx="28"
         cy="93"
         r="3" />
    </g>
    <g
       inkscape:label="Layer 1"
       id="layer1-1-2-6"
       transform="translate(42.906552,206.87254)">
      <circle
         style="fill:none;stroke:#000000;stroke-width:0.2;stroke-miterlimit:4;stroke-dasharray:none;stroke-opacity:1"
         id="path839-6"
         cx="50"
         cy="49.999992"
         r="28" />
      <path
         id="path994-4"
         style="font-variation-settings:normal;opacity:1;vector-effect:none;fill:none;fill-opacity:1;stroke:#000000;stroke-width:0.2;stroke-linecap:butt;stroke-linejoin:miter;stroke-miterlimit:4;stroke-dasharray:none;stroke-dashoffset:0;stroke-opacity:1;stop-color:#000000;stop-opacity:1"
         d="m 29.081432,59.767921 a 2,2 0 0 1 2.732051,0.732051 2,2 0 0 1 -0.732051,2.73205 2,2 0 0 1 -2.732051,-0.73205 2,2 0 0 1 0.732051,-2.732051 z"
         inkscape:transform-center-y="11.499991"
         inkscape:transform-center-x="19.918568" />
      <path
         id="path994-7-9"
         style="fill:none;stroke:#000000;stroke-width:0.2;stroke-miterlimit:4;stroke-dasharray:none;stroke-opacity:1"
         d="m 68.918568,63.232022 a 2,2 0 0 1 -0.732051,-2.732051 2,2 0 0 1 2.732051,-0.73205 2,2 0 0 1 0.732051,2.73205 2,2 0 0 1 -2.732051,0.732051 z"
         inkscape:transform-center-y="11.49999"
         inkscape:transform-center-x="-19.918568" />
      <path
         id="path994-3-5"
         style="fill:none;stroke:#000000;stroke-width:0.2;stroke-miterlimit:4;stroke-dasharray:none;stroke-opacity:1"
         d="m 52,27 a 2,2 0 0 1 -2,2 2,2 0 0 1 -2,-2 2,2 0 0 1 2,-2 2,2 0 0 1 2,2 z"
         inkscape:transform-center-y="-22.999981" />
      <path
         id="path1188-5-0"
         style="fill:none;stroke:#000000;stroke-width:0.2;stroke-linecap:butt;stroke-linejoin:miter;stroke-miterlimit:4;stroke-dasharray:none;stroke-opacity:1"
         inkscape:transform-center-x="2.3293695"
         inkscape:transform-center-y="11.247527"
         d="m 37.272071,62.727907 0.353553,-0.353553 c 0.390524,-0.390526 0.387948,-1.021805 0.02185,-1.435201 -1.472183,-1.662375 -2.593771,-3.605022 -3.297338,-5.711157 -0.174961,-0.523749 -0.720377,-0.841617 -1.253843,-0.698673 l -0.482958,0.129411 C 30.040382,45.056345 35.738867,35.18628 45.341257,32.613327 l 0.12941,0.482963 c 0.142943,0.533466 0.690935,0.846875 1.231996,0.736522 2.17575,-0.44376 4.418926,-0.44376 6.594676,0 0.54106,0.110354 1.089051,-0.203056 1.23199,-0.736523 l 0.129406,-0.482959 c 9.602388,2.572952 15.300873,12.443017 12.727921,22.045407 l -0.482964,-0.129409 c -0.533466,-0.142941 -1.078882,0.17493 -1.253844,0.698679 -0.703568,2.106135 -1.825156,4.048782 -3.297338,5.711157 -0.3661,0.413395 -0.368676,1.044677 0.02185,1.435196 l 0.353554,0.353548 c -7.029436,7.029437 -18.426405,7.029437 -25.455843,-10e-7 z"
         sodipodi:nodetypes="cssssccssssccsssscc" />
    </g>
  </g>
</svg>
