<?xml version="1.0" encoding="UTF-8" standalone="no"?>
<svg
   xmlns:dc="http://purl.org/dc/elements/1.1/"
   xmlns:cc="http://creativecommons.org/ns#"
   xmlns:rdf="http://www.w3.org/1999/02/22-rdf-syntax-ns#"
   xmlns:svg="http://www.w3.org/2000/svg"
   xmlns="http://www.w3.org/2000/svg"
   xmlns:sodipodi="http://sodipodi.sourceforge.net/DTD/sodipodi-0.dtd"
   xmlns:inkscape="http://www.inkscape.org/namespaces/inkscape"
   width="210mm"
   height="297mm"
   viewBox="0 0 210 297"
   version="1.1"
   id="svg8753"
   inkscape:version="1.0.2 (e86c870879, 2021-01-15)"
   sodipodi:docname="_combined6a.svg">
  <defs
     id="defs8747" />
  <sodipodi:namedview
     id="base"
     pagecolor="#ffffff"
     bordercolor="#666666"
     borderopacity="1.0"
     inkscape:pageopacity="0.0"
     inkscape:pageshadow="2"
     inkscape:zoom="0.7"
     inkscape:cx="400"
     inkscape:cy="560"
     inkscape:document-units="mm"
     inkscape:current-layer="layer1"
     inkscape:document-rotation="0"
     showgrid="false"
     inkscape:window-width="2000"
     inkscape:window-height="1045"
     inkscape:window-x="0"
     inkscape:window-y="0"
     inkscape:window-maximized="1" />
  <metadata
     id="metadata8750">
    <rdf:RDF>
      <cc:Work
         rdf:about="">
        <dc:format>image/svg+xml</dc:format>
        <dc:type
           rdf:resource="http://purl.org/dc/dcmitype/StillImage" />
        <dc:title></dc:title>
      </cc:Work>
    </rdf:RDF>
  </metadata>
  <g
     inkscape:label="Layer 1"
     inkscape:groupmode="layer"
     id="layer1">
    <path
       style="fill:none;stroke:#000000;stroke-width:0.2;stroke-linecap:butt;stroke-linejoin:miter;stroke-miterlimit:4;stroke-dasharray:none;stroke-opacity:1"
       d="m 101.6166,148.61399 32.58547,5.74522 v -6.3107 h 3 v -5 h -3 v -5 h 3 v -5 h -3 v -4 L 102.4563,143.8518 Z"
       id="path7669"
       sodipodi:nodetypes="ccccccccccccc"
       inkscape:transform-center-x="16.292652"
       inkscape:transform-center-y="12.483587" />
    <g
       inkscape:label="Layer 1"
       id="layer1-6"
       transform="translate(79.451911,171.10777)">
      <path
         style="fill:none;stroke:#000000;stroke-width:0.2;stroke-linecap:butt;stroke-linejoin:miter;stroke-miterlimit:4;stroke-dasharray:none;stroke-opacity:1"
         d="M 9.9999997,23.000001 H 13 v -3 h 8 v 3 H 44.999999 V 20 H 55 v 3.000001 H 69.999999 V 20 h 9.999999 v 3.000001 H 94.999999 V 20 H 105 v 3.000001 h 14.87 V 113 H 105 v 3 H 94.999999 v -3 H 79.999998 v 3 h -9.999999 v -3 H 55 v 3 H 44.999999 v -3 H 21 v 3 h -8 v -3 H 9.9999997 Z"
         id="path1706"
         sodipodi:nodetypes="ccccccccccccccccccccccccccccccccccccc" />
      <rect
         style="fill:none;stroke:#000000;stroke-width:0.2"
         id="rect7429"
         width="3"
         height="8"
         x="114.1"
         y="77.999992" />
      <rect
         style="fill:none;stroke:#000000;stroke-width:0.2"
         id="rect7431"
         width="3"
         height="8"
         x="114.1"
         y="100" />
    </g>
    <g
       inkscape:label="Layer 1"
       id="layer1-4"
       transform="rotate(90,114.72708,104.00982)">
      <path
         style="fill:none;stroke:#000000;stroke-width:0.2;stroke-linecap:butt;stroke-linejoin:miter;stroke-miterlimit:4;stroke-dasharray:none;stroke-opacity:1"
         d="m 23,23.000001 h 7 v -3 h 7 v 3 h 10 v -3 h 25 v 3 h 18 v -3 h 7 v 3 h 5 V 113 h -5 v 3 h -7 v -3 H 77 v 3 h -7 v -3 H 57 v 3 h -7 v -3 H 37 v 3 h -7 v -3 h -7 z"
         id="path2404-8"
         sodipodi:nodetypes="ccccccccccccccccccccccccccccccccc" />
      <path
         style="fill:none;stroke:#000000;stroke-width:0.2;stroke-linecap:butt;stroke-linejoin:miter;stroke-miterlimit:4;stroke-dasharray:none;stroke-opacity:1"
         d="m 50,23.000001 h 6 v 3 h -6 z"
         id="path2573"
         sodipodi:nodetypes="ccccc" />
      <path
         style="fill:none;stroke:#000000;stroke-width:0.2;stroke-linecap:butt;stroke-linejoin:miter;stroke-miterlimit:4;stroke-dasharray:none;stroke-opacity:1"
         d="m 63,23.000001 h 6.000001 v 3 L 63,26 Z"
         id="path2575"
         sodipodi:nodetypes="ccccc" />
    </g>
    <path
       id="rect3188"
       style="opacity:0.989413;fill:none;stroke:#000000;stroke-width:0.2;stroke-miterlimit:4;stroke-dasharray:none"
       d="m 17.511904,244.9495 h 5 v -3 h 8 v 3 h 8 v -3 h 8 v 3 h 5.5 v 40.00002 h -34.5 v -5 h -3 v -8.00001 h 3 v -14 h -3 v -8.00001 h 3 z"
       sodipodi:nodetypes="ccccccccccccccccccccc" />
    <path
       style="fill:none;stroke:#000000;stroke-width:0.2;stroke-linecap:butt;stroke-linejoin:miter;stroke-miterlimit:4;stroke-dasharray:none;stroke-opacity:1"
       d="m 57.659229,146.78022 32.585417,5.74522 v -6.3107 h 3 v -5 h -3 v -5 h 3 v -5 h -3 v -4 l -31.745717,14.80329 z"
       id="path7669-1"
       sodipodi:nodetypes="ccccccccccccc"
       inkscape:transform-center-x="16.292652"
       inkscape:transform-center-y="12.483587" />
    <path
       style="fill:none;stroke:#000000;stroke-width:0.2;stroke-linecap:butt;stroke-linejoin:miter;stroke-miterlimit:4;stroke-dasharray:none;stroke-opacity:1"
       d="m 104.22503,181.54342 v -7 h -3 v -7 h 3 v -3 h 40.00001 v -45 h -40.00001 v -5 h -3 v -7 h 3 v -5 h 90.00004 v 5 h 3 v 7 h -3 v 13 h 3 v 7 h -3 v 13 h 3 v 7 h -3 v 13 h 3 v 7 h -3 v 7 z"
       id="path2404"
       sodipodi:nodetypes="ccccccccccccccccccccccccccccccccc" />
    <path
       style="fill:none;stroke:#000000;stroke-width:0.2;stroke-linecap:butt;stroke-linejoin:miter;stroke-miterlimit:4;stroke-dasharray:none;stroke-opacity:1"
       d="m 27.940553,124.14008 8.999998,17 31.999996,-17 H 55.940546 v -3 h -6 v 3 h -7 v -3 h -5.999995 v 3 z"
       id="path4480"
       sodipodi:nodetypes="cccccccccccc" />
    <path
       style="fill:none;stroke:#000000;stroke-width:0.2;stroke-linecap:butt;stroke-linejoin:miter;stroke-miterlimit:4;stroke-dasharray:none;stroke-opacity:1"
       d="m 96.186867,163.44967 -9,17 -31.99999,-17 h 13 v -3 h 6 v 3 h 7 v -3 h 5.99999 v 3 z"
       id="path4480-7"
       sodipodi:nodetypes="cccccccccccc" />
    <path
       style="fill:none;stroke:#000000;stroke-width:0.2;stroke-linecap:butt;stroke-linejoin:miter;stroke-miterlimit:4;stroke-dasharray:none;stroke-opacity:1"
       d="m 15.46839,137.09074 7.778178,7.77818 2.121316,-2.12133 4.949746,4.94976 -2.121325,2.12132 9.192385,9.19238 2.121321,-2.12132 4.94975,4.94975 -2.121321,2.12132 4.94975,4.94975 v 5.5 h 3.000001 v 10 H 47.28819 v 7 c -12.48882,0 -31.91874,-36.5 -31.8198,-54.31981 z"
       id="path4524"
       inkscape:transform-center-x="14.409901"
       inkscape:transform-center-y="1.7677648"
       sodipodi:nodetypes="cccccccccccccccc" />
    <path
       style="fill:none;stroke:#000000;stroke-width:0.2;stroke-linecap:butt;stroke-linejoin:miter;stroke-miterlimit:4;stroke-dasharray:none;stroke-opacity:1"
       d="m 14.945049,180.87243 7.778178,7.77818 2.121316,-2.12133 4.949746,4.94976 -2.121325,2.12132 9.192385,9.19238 2.121321,-2.12132 4.94975,4.94975 -2.121321,2.12132 4.94975,4.94975 v 5.5 h 3.000001 v 10 h -3.000001 v 7 c -12.48882,0 -31.91874,-36.5 -31.8198,-54.31981 z"
       id="path4524-0"
       inkscape:transform-center-x="14.409901"
       inkscape:transform-center-y="1.7677648"
       sodipodi:nodetypes="cccccccccccccccc" />
    <g
       inkscape:label="Layer 1"
       id="layer1-2"
       transform="translate(36.053595,169.3899)">
      <rect
         style="fill:none;stroke:#000000;stroke-width:0.2;stroke-miterlimit:4;stroke-dasharray:none"
         id="rect4621"
         width="22.5"
         height="59"
         x="23"
         y="57"
         ry="0" />
      <rect
         style="fill:none;stroke:#000000;stroke-width:0.2;stroke-miterlimit:4;stroke-dasharray:none"
         id="rect4627"
         width="10"
         height="3.0000007"
         x="30"
         y="73" />
      <rect
         style="fill:none;stroke:#000000;stroke-width:0.2;stroke-miterlimit:4;stroke-dasharray:none"
         id="rect4631"
         width="10"
         height="3.0000005"
         x="30"
         y="97" />
      <rect
         style="fill:none;stroke:#000000;stroke-width:0.2;stroke-miterlimit:4;stroke-dasharray:none"
         id="rect8501"
         width="5"
         height="3"
         x="27"
         y="110" />
      <rect
         style="fill:none;stroke:#000000;stroke-width:0.2;stroke-miterlimit:4;stroke-dasharray:none"
         id="rect8503"
         width="5"
         height="3"
         x="37"
         y="110" />
      <rect
         style="fill:none;stroke:#000000;stroke-width:0.2;stroke-miterlimit:4;stroke-dasharray:none"
         id="rect8501-0"
         width="5"
         height="3"
         x="27"
         y="60" />
      <rect
         style="fill:none;stroke:#000000;stroke-width:0.2;stroke-miterlimit:4;stroke-dasharray:none"
         id="rect8503-6"
         width="5"
         height="3"
         x="37"
         y="60" />
    </g>
    <g
       inkscape:label="Layer 1"
       id="layer1-40"
       transform="translate(-5.4255643,-7.6750453)">
      <path
         style="fill:none;stroke:#000000;stroke-width:0.2;stroke-linecap:butt;stroke-linejoin:miter;stroke-miterlimit:4;stroke-dasharray:none;stroke-opacity:1"
         d="m 23,23.000001 h 7 v -3 h 7 v 3 h 10 v -3 h 25 v 3 h 18 v -3 h 7 v 3 h 5 V 113 h -5 v 3 h -7 v -3 H 77 v 3 h -7 v -3 H 57 v 3 h -7 v -3 H 37 v 3 h -7 v -3 h -7 z"
         id="path2404-5"
         sodipodi:nodetypes="ccccccccccccccccccccccccccccccccc" />
      <path
         style="fill:none;stroke:#000000;stroke-width:0.2;stroke-linecap:butt;stroke-linejoin:miter;stroke-miterlimit:4;stroke-dasharray:none;stroke-opacity:1"
         d="m 50,23.000001 h 6 v 3 h -6 z"
         id="path2573-9"
         sodipodi:nodetypes="ccccc" />
      <path
         style="fill:none;stroke:#000000;stroke-width:0.2;stroke-linecap:butt;stroke-linejoin:miter;stroke-miterlimit:4;stroke-dasharray:none;stroke-opacity:1"
         d="m 63,23.000001 h 6.000001 v 3 L 63,26 Z"
         id="path2575-4"
         sodipodi:nodetypes="ccccc" />
      <rect
         style="fill:none;stroke:#000000;stroke-width:0.2"
         id="rect4674"
         width="7"
         height="3"
         x="30"
         y="97" />
      <rect
         style="fill:none;stroke:#000000;stroke-width:0.2"
         id="rect4676"
         width="7"
         height="3"
         x="50"
         y="97" />
      <rect
         style="fill:none;stroke:#000000;stroke-width:0.2"
         id="rect4678"
         width="7"
         height="3"
         x="30"
         y="73" />
      <rect
         style="fill:none;stroke:#000000;stroke-width:0.2"
         id="rect4680"
         width="7"
         height="3"
         x="50"
         y="73" />
    </g>
  </g>
</svg>
