<?xml version="1.0" encoding="UTF-8" standalone="no"?>
<svg
   xmlns:dc="http://purl.org/dc/elements/1.1/"
   xmlns:cc="http://creativecommons.org/ns#"
   xmlns:rdf="http://www.w3.org/1999/02/22-rdf-syntax-ns#"
   xmlns:svg="http://www.w3.org/2000/svg"
   xmlns="http://www.w3.org/2000/svg"
   xmlns:sodipodi="http://sodipodi.sourceforge.net/DTD/sodipodi-0.dtd"
   xmlns:inkscape="http://www.inkscape.org/namespaces/inkscape"
   width="210mm"
   height="297mm"
   viewBox="0 0 210 297"
   version="1.1"
   id="svg9619"
   inkscape:version="1.0.2 (e86c870879, 2021-01-15)"
   sodipodi:docname="parts2.svg">
  <defs
     id="defs9613">
    <inkscape:path-effect
       effect="fillet_chamfer"
       id="path-effect44"
       is_visible="true"
       lpeversion="1"
       satellites_param="F,0,0,1,0,0,0,1 @ F,0,0,1,0,1,0,1 @ F,0,0,1,0,1,0,1 @ F,0,0,1,0,1,0,1"
       unit="mm"
       method="auto"
       mode="F"
       radius="1"
       chamfer_steps="1"
       flexible="false"
       use_knot_distance="true"
       apply_no_radius="true"
       apply_with_radius="true"
       only_selected="false"
       hide_knots="false" />
  </defs>
  <sodipodi:namedview
     id="base"
     pagecolor="#ffffff"
     bordercolor="#666666"
     borderopacity="1.0"
     inkscape:pageopacity="0.0"
     inkscape:pageshadow="2"
     inkscape:zoom="0.63699024"
     inkscape:cx="706.50226"
     inkscape:cy="538.86572"
     inkscape:document-units="mm"
     inkscape:current-layer="layer1"
     inkscape:document-rotation="0"
     showgrid="false"
     inkscape:window-width="2000"
     inkscape:window-height="1045"
     inkscape:window-x="0"
     inkscape:window-y="0"
     inkscape:window-maximized="1" />
  <metadata
     id="metadata9616">
    <rdf:RDF>
      <cc:Work
         rdf:about="">
        <dc:format>image/svg+xml</dc:format>
        <dc:type
           rdf:resource="http://purl.org/dc/dcmitype/StillImage" />
        <dc:title />
      </cc:Work>
    </rdf:RDF>
  </metadata>
  <g
     inkscape:label="Layer 1"
     inkscape:groupmode="layer"
     id="layer1">
    <path
       style="fill:none;stroke:#000000;stroke-width:0.2;stroke-linecap:butt;stroke-linejoin:miter;stroke-miterlimit:4;stroke-dasharray:none;stroke-opacity:1"
       d="m 19.662039,102.27563 -5.74522,-32.585394 h 6.3107 v -2.999998 h 5 v 2.999998 h 5.000002 v -2.999998 h 5 v 2.999998 h 4 L 24.424229,101.43593 Z"
       id="path7669-1"
       sodipodi:nodetypes="ccccccccccccc"
       inkscape:transform-center-x="12.483586"
       inkscape:transform-center-y="16.29265" />
    <g
       inkscape:label="Layer 1"
       id="layer1-90-4"
       transform="translate(-12.177732,-12.969649)">
      <circle
         id="path14-76"
         cx="50"
         cy="49.999992"
         style="fill:none;stroke:#000000;stroke-width:0.2;stroke-miterlimit:4;stroke-dasharray:none;stroke-opacity:1"
         r="18" />
      <circle
         style="fill:none;stroke:#000000;stroke-width:0.2;stroke-miterlimit:4;stroke-dasharray:none;stroke-opacity:1"
         id="path839-3"
         cx="50"
         cy="49.999992"
         r="28" />
      <path
         id="path994-1"
         style="font-variation-settings:normal;opacity:1;vector-effect:none;fill:none;fill-opacity:1;stroke:#000000;stroke-width:0.2;stroke-linecap:butt;stroke-linejoin:miter;stroke-miterlimit:4;stroke-dasharray:none;stroke-dashoffset:0;stroke-opacity:1;stop-color:#000000;stop-opacity:1"
         d="m 29.081432,59.767921 a 2,2 0 0 1 2.732051,0.732051 2,2 0 0 1 -0.732051,2.73205 2,2 0 0 1 -2.732051,-0.73205 2,2 0 0 1 0.732051,-2.732051 z"
         inkscape:transform-center-y="11.499991"
         inkscape:transform-center-x="19.918568" />
      <path
         id="path994-7-7"
         style="fill:none;stroke:#000000;stroke-width:0.2;stroke-miterlimit:4;stroke-dasharray:none;stroke-opacity:1"
         d="m 68.918568,63.232022 a 2,2 0 0 1 -0.732051,-2.732051 2,2 0 0 1 2.732051,-0.73205 2,2 0 0 1 0.732051,2.73205 2,2 0 0 1 -2.732051,0.732051 z"
         inkscape:transform-center-y="11.49999"
         inkscape:transform-center-x="-19.918568" />
      <path
         id="path994-3-59"
         style="fill:none;stroke:#000000;stroke-width:0.2;stroke-miterlimit:4;stroke-dasharray:none;stroke-opacity:1"
         d="m 52,27 a 2,2 0 0 1 -2,2 2,2 0 0 1 -2,-2 2,2 0 0 1 2,-2 2,2 0 0 1 2,2 z"
         inkscape:transform-center-y="-22.999981" />
    </g>
    <g
       inkscape:label="Layer 1"
       id="layer1-90-4-6"
       transform="translate(123.91251,47.635602)">
      <circle
         id="path14-76-2"
         cx="50"
         cy="49.999992"
         style="fill:none;stroke:#000000;stroke-width:0.2;stroke-miterlimit:4;stroke-dasharray:none;stroke-opacity:1"
         r="18" />
      <circle
         style="fill:none;stroke:#000000;stroke-width:0.2;stroke-miterlimit:4;stroke-dasharray:none;stroke-opacity:1"
         id="path839-3-1"
         cx="50"
         cy="49.999992"
         r="28" />
      <path
         id="path994-1-7"
         style="font-variation-settings:normal;opacity:1;vector-effect:none;fill:none;fill-opacity:1;stroke:#000000;stroke-width:0.2;stroke-linecap:butt;stroke-linejoin:miter;stroke-miterlimit:4;stroke-dasharray:none;stroke-dashoffset:0;stroke-opacity:1;stop-color:#000000;stop-opacity:1"
         d="m 29.081432,59.767921 a 2,2 0 0 1 2.732051,0.732051 2,2 0 0 1 -0.732051,2.73205 2,2 0 0 1 -2.732051,-0.73205 2,2 0 0 1 0.732051,-2.732051 z"
         inkscape:transform-center-y="11.499991"
         inkscape:transform-center-x="19.918568" />
      <path
         id="path994-7-7-8"
         style="fill:none;stroke:#000000;stroke-width:0.2;stroke-miterlimit:4;stroke-dasharray:none;stroke-opacity:1"
         d="m 68.918568,63.232022 a 2,2 0 0 1 -0.732051,-2.732051 2,2 0 0 1 2.732051,-0.73205 2,2 0 0 1 0.732051,2.73205 2,2 0 0 1 -2.732051,0.732051 z"
         inkscape:transform-center-y="11.49999"
         inkscape:transform-center-x="-19.918568" />
      <path
         id="path994-3-59-5"
         style="fill:none;stroke:#000000;stroke-width:0.2;stroke-miterlimit:4;stroke-dasharray:none;stroke-opacity:1"
         d="m 52,27 a 2,2 0 0 1 -2,2 2,2 0 0 1 -2,-2 2,2 0 0 1 2,-2 2,2 0 0 1 2,2 z"
         inkscape:transform-center-y="-22.999981" />
    </g>
    <g
       inkscape:label="Layer 1"
       id="layer1-90-4-6-6"
       transform="translate(123.91251,-12.771702)">
      <circle
         id="path14-76-2-2"
         cx="50"
         cy="49.999992"
         style="fill:none;stroke:#000000;stroke-width:0.2;stroke-miterlimit:4;stroke-dasharray:none;stroke-opacity:1"
         r="18" />
      <circle
         style="fill:none;stroke:#000000;stroke-width:0.2;stroke-miterlimit:4;stroke-dasharray:none;stroke-opacity:1"
         id="path839-3-1-9"
         cx="50"
         cy="49.999992"
         r="28" />
      <path
         id="path994-1-7-1"
         style="font-variation-settings:normal;opacity:1;vector-effect:none;fill:none;fill-opacity:1;stroke:#000000;stroke-width:0.2;stroke-linecap:butt;stroke-linejoin:miter;stroke-miterlimit:4;stroke-dasharray:none;stroke-dashoffset:0;stroke-opacity:1;stop-color:#000000;stop-opacity:1"
         d="m 29.081432,59.767921 a 2,2 0 0 1 2.732051,0.732051 2,2 0 0 1 -0.732051,2.73205 2,2 0 0 1 -2.732051,-0.73205 2,2 0 0 1 0.732051,-2.732051 z"
         inkscape:transform-center-y="11.499991"
         inkscape:transform-center-x="19.918568" />
      <path
         id="path994-7-7-8-2"
         style="fill:none;stroke:#000000;stroke-width:0.2;stroke-miterlimit:4;stroke-dasharray:none;stroke-opacity:1"
         d="m 68.918568,63.232022 a 2,2 0 0 1 -0.732051,-2.732051 2,2 0 0 1 2.732051,-0.73205 2,2 0 0 1 0.732051,2.73205 2,2 0 0 1 -2.732051,0.732051 z"
         inkscape:transform-center-y="11.49999"
         inkscape:transform-center-x="-19.918568" />
      <path
         id="path994-3-59-5-7"
         style="fill:none;stroke:#000000;stroke-width:0.2;stroke-miterlimit:4;stroke-dasharray:none;stroke-opacity:1"
         d="m 52,27 a 2,2 0 0 1 -2,2 2,2 0 0 1 -2,-2 2,2 0 0 1 2,-2 2,2 0 0 1 2,2 z"
         inkscape:transform-center-y="-22.999981" />
    </g>
    <g
       inkscape:label="Layer 1"
       id="layer1-5"
       transform="rotate(90,13.856435,107.78114)">
      <path
         style="fill:none;stroke:#000000;stroke-width:0.2;stroke-linecap:butt;stroke-linejoin:miter;stroke-miterlimit:4;stroke-dasharray:none;stroke-opacity:1"
         d="M 99.999997,110 H 55 L 36.98132,100 34.844971,98.766578 42.548207,87.765217 46.309527,86.677941 53.827047,75.94181 53.782011,71.721683 89.997924,20 l 9.580482,-9.397901 36.561614,25.60072 4.68183,12.86321 L 127.72144,63.114491 155.2931,88.825477 180,104 v 6 z"
         id="path38"
         sodipodi:nodetypes="ccccccccccccccccc" />
      <circle
         style="opacity:0.989413;fill:none;stroke:#000000;stroke-width:0.2;stroke-miterlimit:4;stroke-dasharray:none;stroke-opacity:1"
         id="path2394"
         cx="70"
         cy="103"
         r="2" />
      <rect
         id="rect346-3"
         width="7.1999998"
         height="3.2"
         x="81.770844"
         y="-113.00951"
         style="fill:none;fill-opacity:1;stroke:#000000;stroke-width:0.2;stroke-miterlimit:4;stroke-dasharray:none;stroke-opacity:1"
         transform="rotate(70)" />
      <rect
         id="rect346-6"
         width="7.1999998"
         height="3.2"
         x="141.77084"
         y="-113.00951"
         style="fill:none;fill-opacity:1;stroke:#000000;stroke-width:0.2;stroke-miterlimit:4;stroke-dasharray:none;stroke-opacity:1"
         transform="rotate(70)" />
      <rect
         style="fill:none;stroke:#000000;stroke-width:0.2;stroke-miterlimit:4;stroke-dasharray:none"
         id="rect7467"
         width="8.1999998"
         height="3.2"
         x="95.550964"
         y="-46.53109"
         transform="rotate(35)" />
      <rect
         style="fill:none;stroke:#000000;stroke-width:0.2;stroke-miterlimit:4;stroke-dasharray:none"
         id="rect7469"
         width="8.1999998"
         height="3.2"
         x="111.55097"
         y="-46.53109"
         transform="rotate(35)" />
      <rect
         style="fill:none;stroke:#000000;stroke-width:0.2;stroke-miterlimit:4;stroke-dasharray:none"
         id="rect7516"
         width="8.1999998"
         height="3.2"
         x="-57.803574"
         y="87.550972"
         transform="rotate(-55)" />
      <rect
         style="fill:none;stroke:#000000;stroke-width:0.2;stroke-miterlimit:4;stroke-dasharray:none"
         id="rect7518"
         width="10.2"
         height="3.2"
         x="-25.803576"
         y="87.550972"
         transform="rotate(-55)" />
      <rect
         style="fill:none;stroke:#000000;stroke-width:0.2;stroke-miterlimit:4;stroke-dasharray:none"
         id="rect7520"
         width="10.2"
         height="3.2"
         x="-0.80358046"
         y="87.550972"
         transform="rotate(-55)" />
      <rect
         style="fill:none;stroke:#000000;stroke-width:0.2;stroke-miterlimit:4;stroke-dasharray:none"
         id="rect7522"
         width="10.2"
         height="3.2"
         x="24.196426"
         y="87.550972"
         transform="rotate(-55)" />
      <rect
         style="fill:none;stroke:#000000;stroke-width:0.2"
         id="rect112-6"
         width="11"
         height="3"
         x="164"
         y="104" />
      <circle
         style="opacity:0.989413;fill:none;stroke:#000000;stroke-width:0.2;stroke-miterlimit:4;stroke-dasharray:none"
         id="path4695-3"
         cx="100"
         cy="40"
         r="3.5" />
      <path
         style="fill:none;stroke:#000000;stroke-width:0.264583px;stroke-linecap:butt;stroke-linejoin:miter;stroke-opacity:1"
         d="M 99.167978,16.41859 Z"
         id="path149" />
    </g>
    <g
       inkscape:label="Layer 1"
       id="layer1-9"
       transform="rotate(-90,110.60185,105.03766)">
      <path
         id="path38-1"
         style="fill:none;stroke:#000000;stroke-width:0.755906;stroke-linecap:butt;stroke-linejoin:miter;stroke-miterlimit:4;stroke-dasharray:none;stroke-opacity:1"
         d="m 370.87109,45.453125 -30.7207,30.136719 -208.45312,297.701176 76.17578,42.45703 98.26869,-10e-6 v 12.15914 l 306.14173,-0.82056 v -11.33858 l 68.03098,10e-6 v -22.67774 l -165.76953,-256.24219 -27.54687,-19.28906 -3.24414,6.95703 z"
         transform="scale(0.26458333)"
         sodipodi:nodetypes="cccccccccccccc" />
      <circle
         style="opacity:0.989413;fill:none;stroke:#000000;stroke-width:0.2;stroke-miterlimit:4;stroke-dasharray:none"
         id="path4695-2"
         cx="69"
         cy="95"
         r="3.5" />
      <circle
         id="path14-7"
         cx="122"
         cy="81.999992"
         style="fill:none;stroke:#000000;stroke-width:0.2;stroke-miterlimit:4;stroke-dasharray:none;stroke-opacity:1"
         r="18" />
      <path
         id="path994-0"
         style="font-variation-settings:normal;vector-effect:none;fill:none;fill-opacity:1;stroke:#000000;stroke-width:0.2;stroke-linecap:butt;stroke-linejoin:miter;stroke-miterlimit:4;stroke-dasharray:none;stroke-dashoffset:0;stroke-opacity:1;stop-color:#000000"
         d="m 101.08143,91.76792 a 2,2 0 0 1 2.73205,0.732051 2,2 0 0 1 -0.73205,2.73205 2,2 0 0 1 -2.73205,-0.73205 2,2 0 0 1 0.73205,-2.732051 z"
         inkscape:transform-center-y="11.499991"
         inkscape:transform-center-x="19.918568" />
      <path
         id="path994-7-9"
         style="fill:none;stroke:#000000;stroke-width:0.2;stroke-miterlimit:4;stroke-dasharray:none;stroke-opacity:1"
         d="m 140.91857,95.232021 a 2,2 0 0 1 -0.73205,-2.732051 2,2 0 0 1 2.73205,-0.73205 2,2 0 0 1 0.73205,2.73205 2,2 0 0 1 -2.73205,0.732051 z"
         inkscape:transform-center-y="11.49999"
         inkscape:transform-center-x="-19.918568" />
      <path
         id="path994-3-3"
         style="fill:none;stroke:#000000;stroke-width:0.2;stroke-miterlimit:4;stroke-dasharray:none;stroke-opacity:1"
         d="m 124,58.999999 a 2,2 0 0 1 -2,2 2,2 0 0 1 -2,-2 2,2 0 0 1 2,-2 2,2 0 0 1 2,2 z"
         inkscape:transform-center-y="-22.999981" />
      <rect
         id="rect346-3-6"
         width="7.1999998"
         height="3.2"
         x="81.770828"
         y="-113.00953"
         style="fill:none;fill-opacity:1;stroke:#000000;stroke-width:0.2;stroke-miterlimit:4;stroke-dasharray:none;stroke-opacity:1"
         transform="rotate(70)" />
      <rect
         id="rect346-6-0"
         width="7.1999998"
         height="3.2"
         x="141.77083"
         y="-113.00953"
         style="fill:none;fill-opacity:1;stroke:#000000;stroke-width:0.2;stroke-miterlimit:4;stroke-dasharray:none;stroke-opacity:1"
         transform="rotate(70)" />
      <rect
         id="rect346-3-5-6"
         width="7.1999998"
         height="3.2"
         x="101.77082"
         y="-113.00953"
         style="fill:none;fill-opacity:1;stroke:#000000;stroke-width:0.2;stroke-miterlimit:4;stroke-dasharray:none;stroke-opacity:1"
         transform="rotate(70)" />
      <rect
         id="rect346-3-3-2"
         width="7.1999998"
         height="3.2"
         x="121.77083"
         y="-113.00953"
         style="fill:none;fill-opacity:1;stroke:#000000;stroke-width:0.2;stroke-miterlimit:4;stroke-dasharray:none;stroke-opacity:1"
         transform="rotate(70)" />
      <rect
         style="fill:none;stroke:#000000;stroke-width:0.2;stroke-miterlimit:4;stroke-dasharray:none"
         id="rect1807"
         width="11.2"
         height="3.2"
         x="163.89999"
         y="103.89999" />
      <rect
         style="fill:none;stroke:#000000;stroke-width:0.2;stroke-miterlimit:4;stroke-dasharray:none"
         id="rect7516-6"
         width="8.1999998"
         height="3.2"
         x="-57.803589"
         y="87.550964"
         transform="rotate(-55)" />
      <rect
         style="fill:none;stroke:#000000;stroke-width:0.2;stroke-miterlimit:4;stroke-dasharray:none"
         id="rect7518-1"
         width="10.2"
         height="3.2"
         x="-25.803585"
         y="87.550964"
         transform="rotate(-55)" />
      <rect
         style="fill:none;stroke:#000000;stroke-width:0.2;stroke-miterlimit:4;stroke-dasharray:none"
         id="rect7520-87"
         width="10.2"
         height="3.2"
         x="-0.80359107"
         y="87.550964"
         transform="rotate(-55)" />
      <rect
         style="fill:none;stroke:#000000;stroke-width:0.2;stroke-miterlimit:4;stroke-dasharray:none"
         id="rect7522-92"
         width="10.2"
         height="3.2"
         x="24.196409"
         y="87.550964"
         transform="rotate(-55)" />
      <circle
         style="opacity:0.989413;fill:none;stroke:#000000;stroke-width:0.2;stroke-miterlimit:4;stroke-dasharray:none"
         id="path4695-3-0"
         cx="100"
         cy="40"
         r="3.5" />
      <path
         id="path994-3-2"
         style="fill:none;stroke:#000000;stroke-width:0.2;stroke-miterlimit:4;stroke-dasharray:none;stroke-opacity:1"
         d="m 102,28.000001 a 2,2 0 0 1 -2,2 2,2 0 0 1 -2,-2 2,2 0 0 1 2,-2 2,2 0 0 1 2,2 z"
         inkscape:transform-center-y="-22.999981" />
      <path
         id="path994-3-6"
         style="fill:none;stroke:#000000;stroke-width:0.2;stroke-miterlimit:4;stroke-dasharray:none;stroke-opacity:1"
         d="m 57,95.000001 a 2,2 0 0 1 -2,2 2,2 0 0 1 -2,-2 2,2 0 0 1 2,-2 2,2 0 0 1 2,2 z"
         inkscape:transform-center-y="-22.999981" />
    </g>
    <g
       inkscape:label="Layer 1"
       id="layer1-37"
       transform="rotate(-90,204.10189,115.78356)">
      <path
         style="fill:none;stroke:#000000;stroke-width:0.2;stroke-linecap:butt;stroke-linejoin:miter;stroke-miterlimit:4;stroke-dasharray:none;stroke-opacity:1"
         d="M 55,110 34.844971,98.766578 89.997924,20 99.578449,10.602038 136.13998,36.202696 180,104 v 6 z"
         id="path38-5"
         sodipodi:nodetypes="cccccccc" />
      <circle
         style="opacity:0.989413;fill:none;stroke:#000000;stroke-width:0.2;stroke-miterlimit:4;stroke-dasharray:none"
         id="path4695-9"
         cx="69"
         cy="95"
         r="3.5" />
      <circle
         id="path14-22"
         cx="122"
         cy="81.999992"
         style="fill:none;stroke:#000000;stroke-width:0.2;stroke-miterlimit:4;stroke-dasharray:none;stroke-opacity:1"
         r="18" />
      <path
         id="path994-8"
         style="font-variation-settings:normal;vector-effect:none;fill:none;fill-opacity:1;stroke:#000000;stroke-width:0.2;stroke-linecap:butt;stroke-linejoin:miter;stroke-miterlimit:4;stroke-dasharray:none;stroke-dashoffset:0;stroke-opacity:1;stop-color:#000000"
         d="m 101.08143,91.76792 a 2,2 0 0 1 2.73205,0.732051 2,2 0 0 1 -0.73205,2.73205 2,2 0 0 1 -2.73205,-0.73205 2,2 0 0 1 0.73205,-2.732051 z"
         inkscape:transform-center-y="11.499991"
         inkscape:transform-center-x="19.918568" />
      <path
         id="path994-7-97"
         style="fill:none;stroke:#000000;stroke-width:0.2;stroke-miterlimit:4;stroke-dasharray:none;stroke-opacity:1"
         d="m 140.91857,95.232021 a 2,2 0 0 1 -0.73205,-2.732051 2,2 0 0 1 2.73205,-0.73205 2,2 0 0 1 0.73205,2.73205 2,2 0 0 1 -2.73205,0.732051 z"
         inkscape:transform-center-y="11.49999"
         inkscape:transform-center-x="-19.918568" />
      <path
         id="path994-3-36"
         style="fill:none;stroke:#000000;stroke-width:0.2;stroke-miterlimit:4;stroke-dasharray:none;stroke-opacity:1"
         d="m 124,58.999999 a 2,2 0 0 1 -2,2 2,2 0 0 1 -2,-2 2,2 0 0 1 2,-2 2,2 0 0 1 2,2 z"
         inkscape:transform-center-y="-22.999981" />
      <rect
         id="rect346-3-1"
         width="7.1999998"
         height="3.2"
         x="81.770828"
         y="-113.00953"
         style="fill:none;fill-opacity:1;stroke:#000000;stroke-width:0.2;stroke-miterlimit:4;stroke-dasharray:none;stroke-opacity:1"
         transform="rotate(70)" />
      <rect
         id="rect346-6-2"
         width="7.1999998"
         height="3.2"
         x="141.77083"
         y="-113.00953"
         style="fill:none;fill-opacity:1;stroke:#000000;stroke-width:0.2;stroke-miterlimit:4;stroke-dasharray:none;stroke-opacity:1"
         transform="rotate(70)" />
      <rect
         id="rect346-3-5-9"
         width="7.1999998"
         height="3.2"
         x="101.77082"
         y="-113.00953"
         style="fill:none;fill-opacity:1;stroke:#000000;stroke-width:0.2;stroke-miterlimit:4;stroke-dasharray:none;stroke-opacity:1"
         transform="rotate(70)" />
      <rect
         id="rect346-3-3-3"
         width="7.1999998"
         height="3.2"
         x="121.77083"
         y="-113.00953"
         style="fill:none;fill-opacity:1;stroke:#000000;stroke-width:0.2;stroke-miterlimit:4;stroke-dasharray:none;stroke-opacity:1"
         transform="rotate(70)" />
      <rect
         style="fill:none;stroke:#000000;stroke-width:0.2;stroke-miterlimit:4;stroke-dasharray:none"
         id="rect1807-1"
         width="11.2"
         height="3.2"
         x="163.89999"
         y="103.89999" />
      <rect
         style="fill:none;stroke:#000000;stroke-width:0.2;stroke-miterlimit:4;stroke-dasharray:none"
         id="rect7516-9"
         width="8.1999998"
         height="3.2"
         x="-57.803589"
         y="87.550964"
         transform="rotate(-55)" />
      <rect
         style="fill:none;stroke:#000000;stroke-width:0.2;stroke-miterlimit:4;stroke-dasharray:none"
         id="rect7518-4"
         width="10.2"
         height="3.2"
         x="-25.803585"
         y="87.550964"
         transform="rotate(-55)" />
      <rect
         style="fill:none;stroke:#000000;stroke-width:0.2;stroke-miterlimit:4;stroke-dasharray:none"
         id="rect7520-7"
         width="10.2"
         height="3.2"
         x="-0.80359107"
         y="87.550964"
         transform="rotate(-55)" />
      <rect
         style="fill:none;stroke:#000000;stroke-width:0.2;stroke-miterlimit:4;stroke-dasharray:none"
         id="rect7522-84"
         width="10.2"
         height="3.2"
         x="24.196409"
         y="87.550964"
         transform="rotate(-55)" />
      <circle
         style="opacity:0.989413;fill:none;stroke:#000000;stroke-width:0.2;stroke-miterlimit:4;stroke-dasharray:none"
         id="path4695-3-5"
         cx="100"
         cy="40"
         r="3.5" />
      <path
         id="path994-3-2-0"
         style="fill:none;stroke:#000000;stroke-width:0.2;stroke-miterlimit:4;stroke-dasharray:none;stroke-opacity:1"
         d="m 102,28.000001 a 2,2 0 0 1 -2,2 2,2 0 0 1 -2,-2 2,2 0 0 1 2,-2 2,2 0 0 1 2,2 z"
         inkscape:transform-center-y="-22.999981" />
      <path
         id="path994-3-6-3"
         style="fill:none;stroke:#000000;stroke-width:0.2;stroke-miterlimit:4;stroke-dasharray:none;stroke-opacity:1"
         d="m 57,95.000001 a 2,2 0 0 1 -2,2 2,2 0 0 1 -2,-2 2,2 0 0 1 2,-2 2,2 0 0 1 2,2 z"
         inkscape:transform-center-y="-22.999981" />
    </g>
    <g
       inkscape:label="Layer 1"
       id="layer1-61"
       transform="translate(111.64353,-8.8929403)">
      <path
         style="fill:none;stroke:#000000;stroke-width:0.2;stroke-linecap:butt;stroke-linejoin:miter;stroke-miterlimit:4;stroke-dasharray:none;stroke-opacity:1"
         d="m 10,23.000001 h 5 v -3 h 11 v 3 h 5 V 110 h -5 v 6 H 15 v -6 h -5 z"
         id="path1801-55"
         sodipodi:nodetypes="ccccccccccccc" />
      <circle
         style="fill:none;stroke:#000000;stroke-width:0.2;stroke-miterlimit:4;stroke-dasharray:none"
         id="path2204-4"
         cx="25"
         cy="93"
         r="3" />
    </g>
    <g
       inkscape:label="Layer 1"
       id="layer1-65"
       transform="matrix(0,1,1,0,49.764315,-8.3033228)">
      <circle
         style="opacity:0.989413;fill:none;stroke:#000000;stroke-width:0.2;stroke-miterlimit:4;stroke-dasharray:none"
         id="path4695-3-6"
         cx="5.7435336"
         cy="51.435982"
         r="3.5"
         inkscape:transform-center-x="-14.207294"
         inkscape:transform-center-y="18.839534"
         transform="rotate(-35)" />
      <path
         style="fill:none;stroke:#000000;stroke-width:0.2;stroke-linecap:butt;stroke-linejoin:miter;stroke-miterlimit:4;stroke-dasharray:none;stroke-opacity:1"
         d="m 20,20.000001 v 10 h -3 v 10 h 3 v 10 h -3 v 10 h 3 v 10 c 15,0 34.5,-25 34.5,-50 H 49 v -3 h -8 v 3 h -8 v -3 h -8 l 0.02985,3 H 20 v 0"
         id="path151"
         inkscape:transform-center-x="-16.974878"
         inkscape:transform-center-y="25.627768"
         sodipodi:nodetypes="ccccccccccccccccccccc" />
    </g>
    <path
       style="fill:none;stroke:#000000;stroke-width:0.2;stroke-linecap:butt;stroke-linejoin:miter;stroke-miterlimit:4;stroke-dasharray:none;stroke-opacity:1"
       d="m 125.34811,248.91211 -32.585451,5.74522 v -6.3107 h -3 v -5 h 3 v -5 h -3 v -5 h 3 v -4 l 31.745751,14.80329 z"
       id="path7669"
       sodipodi:nodetypes="ccccccccccccc"
       inkscape:transform-center-x="-16.292647"
       inkscape:transform-center-y="12.483578" />
    <path
       style="fill:none;stroke:#000000;stroke-width:0.2;stroke-linecap:butt;stroke-linejoin:miter;stroke-miterlimit:4;stroke-dasharray:none;stroke-opacity:1"
       d="m 124.4533,149.82556 17,-9 -17,-32.00001 v 13.00001 h -3 v 6 h 3 v 7 h -3 v 6 h 3 z"
       id="path4480"
       sodipodi:nodetypes="cccccccccccc" />
    <path
       style="fill:none;stroke:#000000;stroke-width:0.2;stroke-linecap:butt;stroke-linejoin:miter;stroke-miterlimit:4;stroke-dasharray:none;stroke-opacity:1"
       d="m 181.39353,130.98541 -9,17 -31.99999,-17 h 13 v -3 h 6 v 3 h 7 v -3 h 5.99999 v 3 z"
       id="path4480-7"
       sodipodi:nodetypes="cccccccccccc" />
    <path
       style="fill:none;stroke:#000000;stroke-width:0.2;stroke-linecap:butt;stroke-linejoin:miter;stroke-miterlimit:4;stroke-dasharray:none;stroke-opacity:1"
       d="m 24.576842,272.43412 7.778173,-7.77817 -2.12133,-2.12131 4.949757,-4.94975 2.12132,2.12133 9.192374,-9.19239 -2.121317,-2.12132 4.949747,-4.94975 2.121317,2.12132 4.949747,-4.94975 h 5.499997 v -3 h 9.999997 v 3 h 6.999994 c 0,12.48882 -36.499979,31.91873 -54.319776,31.81979 z"
       id="path4524"
       inkscape:transform-center-x="-1.7677688"
       inkscape:transform-center-y="14.409893"
       sodipodi:nodetypes="cccccccccccccccc" />
    <path
       style="fill:none;stroke:#000000;stroke-width:0.2;stroke-linecap:butt;stroke-linejoin:miter;stroke-miterlimit:4;stroke-dasharray:none;stroke-opacity:1"
       d="m 109.5094,177.26534 7.77818,-7.77818 -2.12133,-2.12131 4.94976,-4.94975 2.12132,2.12133 9.19238,-9.19239 -2.12132,-2.12132 4.94975,-4.94975 2.12132,2.12132 4.94975,-4.94975 h 5.5 v -3 h 10 v 3 h 7 c 0,12.48882 -36.5,31.91874 -54.31981,31.8198 z"
       id="path4524-0"
       inkscape:transform-center-x="-1.7677648"
       inkscape:transform-center-y="14.409898"
       sodipodi:nodetypes="cccccccccccccccc" />
  </g>
</svg>
